<?xml version="1.0" encoding="iso-8859-1"?>
<!-- Uploaded to: SVG Repo, www.svgrepo.com, Generator: SVG Repo Mixer Tools -->
<!DOCTYPE svg PUBLIC "-//W3C//DTD SVG 1.1//EN" "http://www.w3.org/Graphics/SVG/1.1/DTD/svg11.dtd">
<svg fill="#000000" version="1.1" id="Capa_1" xmlns="http://www.w3.org/2000/svg" xmlns:xlink="http://www.w3.org/1999/xlink" 
	 width="800px" height="800px" viewBox="0 0 574.752 574.752"
	 xml:space="preserve">
<g>
	<g>
		<g>
			<path d="M513.276,162.567c18.738-18.729,18.738-49.103,0-67.83c-18.738-18.739-49.094-18.739-67.83,0l-39.123,38.975
				c-19.321-11.571-40.343-20.463-62.695-26.178V78.566h24.884c13.415,0,24.282-10.877,24.282-24.292V24.292
				C392.793,10.877,381.926,0,368.511,0H201.219c-13.415,0-24.282,10.877-24.282,24.292v29.98c0,13.415,10.867,24.292,24.282,24.292
				h27.283v28.35C124.754,132.312,47.422,225.83,47.422,337.31c0,130.929,106.524,237.442,237.443,237.442
				c130.917,0,237.441-106.515,237.441-237.442c0-51.733-16.844-99.497-45.045-138.543L513.276,162.567z M284.865,517.193
				c-99.176,0-179.881-80.694-179.881-179.883c0-99.188,80.702-179.878,179.881-179.878c99.175,0,179.879,80.692,179.879,179.878
				C464.745,436.499,384.041,517.193,284.865,517.193z"/>
			<path d="M284.865,193.069c-15.89,0-28.78,12.883-28.78,28.78v115.459c0,15.9,12.891,28.78,28.78,28.78
				c15.888,0,28.78-12.883,28.78-28.78V221.85C313.648,205.952,300.753,193.069,284.865,193.069z"/>
		</g>
	</g>
</g>
</svg>